<svg width="132" height="24" viewBox="0 0 132 24" fill="none" xmlns="http://www.w3.org/2000/svg">
<path d="M15.896 7.64C15.4907 6.89333 14.904 6.328 14.136 5.944C13.3893 5.53867 12.504 5.336 11.48 5.336C9.70933 5.336 8.29067 5.92267 7.224 7.096C6.15733 8.248 5.624 9.79467 5.624 11.736C5.624 13.8053 6.17867 15.4267 7.288 16.6C8.41867 17.752 9.96533 18.328 11.928 18.328C13.272 18.328 14.4027 17.9867 15.32 17.304C16.2587 16.6213 16.9413 15.64 17.368 14.36H10.424V10.328H22.328V15.416C21.9227 16.7813 21.2293 18.0507 20.248 19.224C19.288 20.3973 18.0613 21.3467 16.568 22.072C15.0747 22.7973 13.3893 23.16 11.512 23.16C9.29333 23.16 7.30933 22.68 5.56 21.72C3.832 20.7387 2.47733 19.384 1.496 17.656C0.536 15.928 0.056 13.9547 0.056 11.736C0.056 9.51733 0.536 7.544 1.496 5.816C2.47733 4.06667 3.832 2.712 5.56 1.752C7.288 0.770665 9.26133 0.279999 11.48 0.279999C14.168 0.279999 16.4293 0.930665 18.264 2.232C20.12 3.53333 21.3467 5.336 21.944 7.64H15.896ZM40.843 19.032H32.459L31.115 23H25.387L33.515 0.535999H39.851L47.979 23H42.187L40.843 19.032ZM39.435 14.808L36.651 6.584L33.899 14.808H39.435ZM60.0808 23.224C58.4381 23.224 56.9661 22.9573 55.6648 22.424C54.3634 21.8907 53.3181 21.1013 52.5288 20.056C51.7608 19.0107 51.3554 17.752 51.3128 16.28H57.1368C57.2221 17.112 57.5101 17.752 58.0008 18.2C58.4914 18.6267 59.1314 18.84 59.9208 18.84C60.7314 18.84 61.3714 18.6587 61.8408 18.296C62.3101 17.912 62.5448 17.3893 62.5448 16.728C62.5448 16.1733 62.3528 15.7147 61.9688 15.352C61.6061 14.9893 61.1474 14.6907 60.5928 14.456C60.0594 14.2213 59.2914 13.9547 58.2888 13.656C56.8381 13.208 55.6541 12.76 54.7368 12.312C53.8194 11.864 53.0301 11.2027 52.3688 10.328C51.7074 9.45333 51.3768 8.312 51.3768 6.904C51.3768 4.81333 52.1341 3.18133 53.6488 2.008C55.1634 0.813333 57.1368 0.216 59.5688 0.216C62.0434 0.216 64.0381 0.813333 65.5528 2.008C67.0674 3.18133 67.8781 4.824 67.9848 6.936H62.0648C62.0221 6.21067 61.7554 5.64533 61.2648 5.24C60.7741 4.81333 60.1448 4.6 59.3767 4.6C58.7154 4.6 58.1821 4.78133 57.7768 5.144C57.3714 5.48533 57.1688 5.98667 57.1688 6.648C57.1688 7.37333 57.5101 7.93867 58.1927 8.344C58.8754 8.74933 59.9421 9.18667 61.3928 9.656C62.8434 10.1467 64.0168 10.616 64.9128 11.064C65.8301 11.512 66.6194 12.1627 67.2808 13.016C67.9421 13.8693 68.2728 14.968 68.2728 16.312C68.2728 17.592 67.9421 18.7547 67.2808 19.8C66.6408 20.8453 65.7021 21.6773 64.4648 22.296C63.2274 22.9147 61.7661 23.224 60.0808 23.224ZM78.6123 18.776H85.7803V23H73.1403V0.535999H78.6123V18.776ZM95.2663 0.535999V13.976C95.2663 15.32 95.5969 16.3547 96.2583 17.08C96.9196 17.8053 97.8903 18.168 99.1703 18.168C100.45 18.168 101.432 17.8053 102.114 17.08C102.797 16.3547 103.138 15.32 103.138 13.976V0.535999H108.61V13.944C108.61 15.9493 108.184 17.6453 107.33 19.032C106.477 20.4187 105.325 21.464 103.874 22.168C102.445 22.872 100.845 23.224 99.0743 23.224C97.3036 23.224 95.7143 22.8827 94.3063 22.2C92.9196 21.496 91.8209 20.4507 91.0103 19.064C90.1996 17.656 89.7943 15.9493 89.7943 13.944V0.535999H95.2663ZM125.409 23L120.737 14.52H119.425V23H113.953V0.535999H123.137C124.907 0.535999 126.411 0.845332 127.649 1.464C128.907 2.08267 129.846 2.936 130.465 4.024C131.083 5.09067 131.393 6.28533 131.393 7.608C131.393 9.10133 130.966 10.4347 130.113 11.608C129.281 12.7813 128.043 13.6133 126.401 14.104L131.585 23H125.409ZM119.425 10.648H122.817C123.819 10.648 124.566 10.4027 125.057 9.912C125.569 9.42133 125.825 8.728 125.825 7.832C125.825 6.97867 125.569 6.30667 125.057 5.816C124.566 5.32533 123.819 5.08 122.817 5.08H119.425V10.648Z" fill="url(#paint0_linear_102_247)"/>
<defs>
<linearGradient id="paint0_linear_102_247" x1="1.79167" y1="4.33928" x2="122.039" y2="49.2225" gradientUnits="userSpaceOnUse">
<stop stop-color="#9B51E0"/>
<stop offset="1" stop-color="#3081ED"/>
</linearGradient>
</defs>
</svg>
